# xmcd
#
# Track frame offsets: 
#        150
#        10080
#        23695
#        32757
#        42985
#        54010
#        64995
#        75005
#        87790
#        99575
#        109917
#        119610
#        132772
#        142260
#        154650
#        167715
#        177685
#        189367
#        200065
#        210692
#        226362
#        241482
#        255207
#        265365
#
# Disc length: 3719 seconds
#
# Revision: 5
# Processed by: cddbd v1.5.2PL0 Copyright (c) Steve Scherf et al.
# Submitted via: ExactAudioCopyFreeDBPlugin 1.0
#
DISCID=450e8518
DTITLE=Patsy Cline - The Patsy Cline Story
DYEAR=1988
DGENRE=Country
TTITLE0=Heartaches
TTITLE1=She's Got You
TTITLE2=Walkin' After Midnight
TTITLE3=Strange
TTITLE4=Leavin' On Your Mind
TTITLE5=South Of The Border (Down Mexico Way)
TTITLE6=Foolin' 'Round
TTITLE7=I Fall To Pieces
TTITLE8=A Poor Man's Roses (Or A Rich Man's Gold)
TTITLE9=Tra Le La Le La Triangle
TTITLE10=True Love
TTITLE11=Imagine That
TTITLE12=Back In Baby's Arms
TTITLE13=Crazy
TTITLE14=You're Stronger Than Me
TTITLE15=Seven Lonely Days
TTITLE16=Sweet Dreams (Of You)
TTITLE17=Your Cheatin' Heart
TTITLE18=San Antonio Rose
TTITLE19=Why Can't He Be You
TTITLE20=The Wayward Wind
TTITLE21=So Wrong
TTITLE22=I Love You So Much It Hurts
TTITLE23=You Belong To Me
EXTD=
EXTT0=
EXTT1=
EXTT2=
EXTT3=
EXTT4=
EXTT5=
EXTT6=
EXTT7=
EXTT8=
EXTT9=
EXTT10=
EXTT11=
EXTT12=
EXTT13=
EXTT14=
EXTT15=
EXTT16=
EXTT17=
EXTT18=
EXTT19=
EXTT20=
EXTT21=
EXTT22=
EXTT23=
PLAYORDER=
